# AST/ASF file generated using VICON BodyLanguage
# -----------------------------------------------
:version 1.10
:name VICON
:units
  mass 1.0
  length 0.45
  angle deg
:documentation
   .ast/.asf automatically generated from VICON data using
   VICON BodyBuilder and BodyLanguage model FoxedUp or BRILLIANT.MOD
:root
   order TX TY TZ RX RY RZ
   axis XYZ
   position 0 0 0  
   orientation 0 0 0 
:bonedata
  begin
     id 1 
     name lhipjoint
     direction 0.700308 -0.549349 0.455834 
     length 2.59063 
     axis 0 0 0  XYZ
  end
  begin
     id 2 
     name lfemur
     direction 0.34202 -0.939693 0  
     length 6.31066  
     axis 0 0 20  XYZ
    dof rx ry rz
    limits (-160.0 20.0)
           (-70.0 70.0)
           (-60.0 70.0)
  end
  begin
     id 3 
     name ltibia
     direction 0.34202 -0.939693 0   
     length 7.36093   
     axis 0 0 20   XYZ
    dof rx
    limits (-10.0 170.0)
  end
  begin
     id 4 
     name lfoot
     direction 0.0905332 -0.248738 0.96433   
     length 2.0233   
     axis -90 7.62852e-016 20   XYZ
    dof rx rz
    limits (-45.0 90.0)
           (-70.0 20.0)
  end
  begin
     id 5 
     name ltoes
     direction 1.53573e-011 -4.21855e-011 1   
     length 1.01524   
     axis -90 7.62852e-016 20   XYZ
    dof rx
    limits (-90.0 20.0)
  end
  begin
     id 6 
     name rhipjoint
     direction -0.61416 -0.607328 0.503944   
     length 2.34332  
     axis 0 0 0  XYZ 
  end
  begin
     id 7 
     name rfemur
     direction -0.34202 -0.939693 0   
     length 6.58548   
     axis 0 0 -20   XYZ
    dof rx ry rz
    limits (-160.0 20.0)
           (-70.0 70.0)
           (-70.0 60.0)
  end
  begin
     id 8 
     name rtibia
     direction -0.34202 -0.939693 0   
     length 7.20707   
     axis 0 0 -20   XYZ
    dof rx
    limits (-10.0 170.0)
 end
 begin
     id 9 
     name rfoot
     direction -0.136772 -0.375778 0.916561   
     length 1.92184  
     axis -90 -7.62852e-016 -20   XYZ
    dof rx rz
    limits (-45.0 90.0)
           (-20.0 70.0)
  end
  begin
     id 10 
     name rtoes
     direction -1.53535e-011 -4.21828e-011 1   
     length 0.951089   
     axis -90 -7.62852e-016 -20   XYZ
    dof rx
    limits (-90.0 20.0)
  end
  begin
     id 11 
     name lowerback
     direction -0.0444974 0.988086 -0.147332   
     length 1.9609   
     axis 0 0 0   XYZ
    dof rx ry rz
    limits (-20.0 45.0)
           (-30.0 30.0)
           (-30.0 30.0)
  end
  begin
     id 12 
     name upperback
     direction 0.00613146 0.999513 0.0306081   
     length 1.94944   
     axis 0 0 0   XYZ
    dof rx ry rz
    limits (-20.0 45.0)
           (-30.0 30.0)
           (-30.0 30.0)
  end
  begin
     id 13 
     name thorax
     direction 0.0254621 0.994518 0.101418   
     length 2.0119   
     axis 0 0 0   XYZ
    dof rx ry rz
    limits (-20.0 45.0)
           (-30.0 30.0)
           (-30.0 30.0)
  end
  begin
     id 14 
     name lowerneck
     direction 0.0168698 0.977854 0.208608   
     length 1.6375   
     axis 0 0 0   XYZ
    dof rx ry rz
    limits (-20.0 45.0)
           (-30.0 30.0)
           (-30.0 30.0)
  end
  begin
     id 15 
     name upperneck
     direction -0.0283988 0.989338 -0.142843   
     length 1.6851   
     axis 0 0 0   XYZ
    dof rx ry rz
    limits (-20.0 45.0)
           (-30.0 30.0)
           (-30.0 30.0)
  end
  begin
     id 16
     name head
     direction -0.0129422 0.99741 -0.0707489  
     length 1.69029  
     axis 0 0 0   XYZ
    dof rx ry rz
    limits (-20.0 45.0)
           (-30.0 30.0)
           (-30.0 30.0)
  end
  begin
     id 17 
     name lclavicle
     direction 0.820295 0.564628 -0.0911715  
     length 3.16484  
     axis 0 0 0   XYZ
    dof ry rz
    limits (-20.0 10.0)
           (0.0 20.0)
  end
  begin
     id 18 
     name lhumerus
     direction 1 -4.48969e-011 1.00186e-027   
     length 5.17853   
     axis 180 -30 -90   XYZ
    dof rx ry rz
    limits (-60.0 90.0)
           (-90.0 90.0)
           (-90.0 90.0)
  end
  begin
     id 19
     name lradius
     direction 1 -4.48966e-011 -1.52922e-027   
     length 3.40399   
     axis 180 -30 -90   XYZ
    dof rx
    limits (-10.0 170.0)
  end
  begin
     id 20
     name lwrist
     direction 1 -4.48981e-011 -3.80893e-027   
     length 1.70199   
     axis 1.1049e-015 90 90   XYZ
    dof ry
    limits (-180.0 0.0)
 end
  begin
     id 21 
     name lhand
     direction 1 -4.48957e-011 -7.61786e-027   
     length 0.708964   
     axis 4.86085e-015 90 90   XYZ
    dof rx rz
    limits (-90.0 90.0)
           (-45.0 45.0)
  end
  begin
     id 22 
     name lfingers
     direction 1 -4.48929e-011 -1.52357e-026   
     length 0.571585   
     axis 9.7217e-015 90 90   XYZ
    dof rx
    limits (0.0 90.0)
  end
  begin
     id 23
     name lthumb
     direction 0.707107 -6.34905e-011 0.707107   
     length 0.820685   
     axis -90 45 2.85299e-015   XYZ
    dof rx rz
    limits (-45.0 45.0)
           (-45.0 45.0)
  end
  begin
     id 24 
     name rclavicle
     direction -0.858602 0.463947 -0.218075   
     length 3.35137  
     axis 0 0 0   XYZ 
    dof ry rz
    limits (-10.0 20.0)
           (-20.0 0.0)
  end
  begin
     id 25 
     name rhumerus
     direction -1 -4.48969e-011 -1.98511e-027  
     length 5.42351   
     axis 180 30 90   XYZ
    dof rx ry rz
    limits (-90.0 60.0)
           (-90.0 90.0)
           (-90.0 90.0)
  end
  begin
     id 26 
     name rradius
     direction -1 -4.48961e-011 -2.82624e-027   
     length 3.42066   
     axis 180 30 90   XYZ
    dof rx
    limits (-10.0 170.0)
  end
  begin
     id 27 
     name rwrist
     direction -1 -4.48966e-011 -3.80893e-027   
     length 1.71033   
     axis 1.1049e-015 -90 -90   XYZ
    dof ry
    limits (-180.0 0.0)
  end
  begin
     id 28
     name rhand
     direction -1 -4.48964e-011 -7.61786e-027   
     length 0.743608   
     axis 4.86085e-015 -90 -90   XYZ
    dof rx rz
    limits (-90.0 90.0)
           (-45.0 45.0)
  end
  begin
     id 29
     name rfingers
     direction -1 -4.48961e-011 -1.52357e-026   
     length 0.599516   
     axis 9.7217e-015 -90 -90   XYZ
    dof rx
    limits (0.0 90.0)
  end
  begin
     id 30
     name rthumb
     direction -0.707107 -6.34913e-011 0.707107   
     length 0.860789   
     axis -90 -45 -2.85299e-015   XYZ
    dof rx rz
    limits (-45.0 45.0)
           (-45.0 45.0)
  end
:hierarchy
  begin
    root lhipjoint rhipjoint lowerback
    lhipjoint lfemur
    lfemur ltibia
    ltibia lfoot
    lfoot ltoes
    rhipjoint rfemur
    rfemur rtibia
    rtibia rfoot
    rfoot rtoes
    lowerback upperback
    upperback thorax
    thorax lowerneck lclavicle rclavicle
    lowerneck upperneck
    upperneck head
    lclavicle lhumerus
    lhumerus lradius
    lradius lwrist
    lwrist lhand lthumb
    lhand lfingers
    rclavicle rhumerus
    rhumerus rradius
    rradius rwrist
    rwrist rhand rthumb
    rhand rfingers
  end

#!OML:ASF E:\mmandel\Project 1\Capture day 1\Session 2\Subject.ASF
:FULLY-SPECIFIED
:DEGREES
701
root 7.94528 14.6811 -0.391705 500.387 87.0404 484.248
lowerback 26.3968 -0.28997 1.71708
upperback 2.92534 0.461406 0.606037
thorax -11.4334 0.260909 -0.49143
lowerneck -16.9894 0.363582 3.93683
upperneck 0.0493696 0.284796 -7.22879
head 2.73297 -0.0870385 -2.83293
rclavicle -1.19271e-015 9.54166e-015
rhumerus -3.93839 4.47323 -78.4783
rradius 73.2133
rwrist -14.4344
rhand -17.3362 36.7981
rfingers 7.12502
rthumb 8.91097 7.00627
lclavicle -1.19271e-015 9.54166e-015
lhumerus -15.9621 -5.18582 86.6921
lradius 69.6745
lwrist 28.8491
lhand -16.224 328.462
lfingers 7.12502
lthumb 9.98408 -1.79432
rfemur -54.2097 -12.5183 15.3491
rtibia 68.3681
rfoot -30.6465 -7.15932
rtoes -6.51485
lfemur -48.3063 17.7821 -9.43667
ltibia 54.1789
lfoot -16.34 -7.81131
ltoes -13.1794
702
root 7.93936 14.6678 -0.416747 502.587 87.0495 486.339
lowerback 26.321 -0.287085 1.702
upperback 2.92902 0.459775 0.616871
thorax -11.3893 0.261345 -0.469553
lowerneck -16.9042 0.369626 3.80998
upperneck -0.0233577 0.29408 -6.85399
head 2.69472 -0.0647436 -2.69488
rclavicle -5.56597e-015 -7.95139e-015
rhumerus -3.88502 4.27186 -78.4853
rradius 73.1871
rwrist -14.3181
rhand -17.4421 36.565
rfingers 7.12502
rthumb 8.80874 6.76881
lclavicle -5.56597e-015 -7.95139e-015
lhumerus -15.5403 -5.46998 86.5928
lradius 69.572
lwrist 28.7958
lhand -15.4388 328.136
lfingers 7.12502
lthumb 10.7415 -2.15831
rfemur -54.3615 -12.6725 15.3668
rtibia 68.4193
rfoot -30.6778 -7.01445
rtoes -6.29449
lfemur -48.5578 17.6578 -9.44223
ltibia 54.356
lfoot -16.5095 -7.76554
ltoes -13.1764
703
root 7.93154 14.653 -0.44338 505.152 87.1482 488.818
lowerback 26.3063 -0.261574 1.73479
upperback 2.94459 0.502966 0.622609
thorax -11.3627 0.280431 -0.497134
lowerneck -16.4092 0.36484 3.94891
upperneck -0.657223 0.240703 -6.48947
head 2.72704 -0.050225 -2.87093
rclavicle -7.55382e-015 -1.98785e-014
rhumerus -3.73705 3.98149 -78.5353
rradius 73.0099
rwrist -14.1657
rhand -17.4695 36.5791
rfingers 7.12502
rthumb 8.78232 6.78181
lclavicle -7.55382e-015 -1.98785e-014
lhumerus -15.1241 -5.89221 86.4184
lradius 69.5929
lwrist 28.989
lhand -16.5328 328.833
lfingers 7.12502
lthumb 9.68612 -1.41005
rfemur -54.4978 -12.7137 15.4575
rtibia 68.474
rfoot -30.7369 -6.97397
rtoes -6.39302
lfemur -48.7703 17.588 -9.33467
ltibia 54.5267
lfoot -16.6617 -7.76289
ltoes -14.0664
704
root 7.92267 14.645 -0.471218 507.754 87.2173 491.368
lowerback 26.3749 -0.244084 1.77171
upperback 2.96712 0.540362 0.627387
thorax -11.3722 0.296997 -0.52667
lowerneck -16.5918 0.28641 3.40924
upperneck -0.305174 0.202999 -5.75839
head 2.86589 -0.0507159 -2.52609
rclavicle -8.34896e-015 -2.14687e-014
rhumerus -3.51927 3.64764 -78.5723
rradius 72.6869
rwrist -13.9142
rhand -17.6745 36.8212
rfingers 7.12502
rthumb 8.58442 7.01567
lclavicle -8.34896e-015 -2.14687e-014
lhumerus -14.7126 -6.35589 86.2547
lradius 69.6452
lwrist 29.2631
lhand -16.7992 328.942
lfingers 7.12502
lthumb 9.42907 -1.2886
rfemur -54.6142 -12.7607 15.5219
rtibia 68.4895
rfoot -30.6887 -7.10295
rtoes -7.07597
lfemur -48.9397 17.4953 -9.26472
ltibia 54.6605
lfoot -16.88 -7.727
ltoes -14.6311
705
root 7.91261 14.6466 -0.49954 509.927 87.1534 493.528
lowerback 26.4659 -0.290429 1.76277
upperback 3.01899 0.482419 0.613625
thorax -11.3618 0.272725 -0.517348
lowerneck -17.6301 0.0737336 2.14343
upperneck 0.85505 0.0887097 -4.23428
head 3.43791 -0.0753875 -1.80638
rclavicle -1.59028e-015 -2.54444e-014
rhumerus -3.35416 3.42906 -78.6373
rradius 72.5238
rwrist -13.7592
rhand -17.9118 37.0486
rfingers 7.12502
rthumb 8.35548 7.23383
lclavicle -1.59028e-015 -2.54444e-014
lhumerus -14.1937 -6.66732 86.0701
lradius 69.5903
lwrist 29.3657
lhand -16.8875 329.028
lfingers 7.12502
lthumb 9.34393 -1.1987
rfemur -54.6753 -12.9349 15.4885
rtibia 68.463
rfoot -30.5454 -7.30764
rtoes -8.17252
lfemur -49.0994 17.2758 -9.31306
ltibia 54.7855
lfoot -17.1058 -7.66028
ltoes -14.2392
706
root 7.90526 14.6468 -0.530007 512.07 87.1788 495.655
lowerback 26.5739 -0.292489 1.7925
upperback 3.03039 0.492985 0.61324
thorax -11.4053 0.276754 -0.539327
lowerneck -18.4287 -0.114442 1.44131
upperneck 2.04143 -0.0632723 -3.42864
head 3.52126 -0.144971 -1.29494
rclavicle 9.93923e-015 0
rhumerus -3.34189 3.20233 -78.6854
rradius 72.493
rwrist -13.7452
rhand -18.1263 37.1946
rfingers 7.12502
rthumb 8.14843 7.37169
lclavicle 9.93923e-015 0
lhumerus -13.7374 -6.93665 85.9559
lradius 69.5825
lwrist 29.3727
lhand -17.2391 329.475
lfingers 7.12502
lthumb 9.0046 -0.736718
rfemur -54.7197 -13.0553 15.517
rtibia 68.4245
rfoot -30.3947 -7.5118
rtoes -9.30502
lfemur -49.2492 17.1261 -9.28723
ltibia 54.9509
lfoot -17.3915 -7.61639
ltoes -14.145
707
root 7.9015 14.6386 -0.564674 514.809 87.3892 498.365
lowerback 26.6299 -0.221707 1.90796
upperback 3.01675 0.622873 0.644946
thorax -11.4472 0.33121 -0.616469
lowerneck -18.2291 -0.170768 1.28931
upperneck 2.05762 -0.131488 -3.11598
head 3.49383 -0.163568 -1.1784
rclavicle -5.96354e-015 -8.34896e-015
rhumerus -3.33105 2.90171 -78.6741
rradius 72.3369
rwrist -13.72
rhand -18.4356 37.2422
rfingers 7.12502
rthumb 7.84993 7.40792
lclavicle -5.96354e-015 -8.34896e-015
lhumerus -13.4534 -7.25536 85.9026
lradius 69.7111
lwrist 29.4452
lhand -17.4171 329.596
lfingers 7.12502
lthumb 8.83289 -0.608841
rfemur -54.7813 -13.0451 15.6481
rtibia 68.3865
rfoot -30.2864 -7.59403
rtoes -9.96066
lfemur -49.3811 17.2169 -9.15585
ltibia 55.168
lfoot -17.6579 -7.67796
ltoes -14.6791
708
root 7.89511 14.6309 -0.598805 515.853 87.517 499.317
lowerback 26.564 -0.16209 1.88765
upperback 3.03436 0.690477 0.63539
thorax -11.3907 0.363455 -0.638994
lowerneck -17.7789 -0.212352 1.11747
upperneck 1.52257 -0.19016 -2.63275
head 3.68039 -0.157577 -1.10528
rclavicle -1.94809e-014 -4.69132e-014
rhumerus -3.10066 2.61052 -78.7275
rradius 71.9688
rwrist -13.6149
rhand -18.685 37.2942
rfingers 7.12502
rthumb 7.60922 7.45113
lclavicle -1.94809e-014 -4.69132e-014
lhumerus -13.1143 -7.56474 85.7529
lradius 69.8237
lwrist 29.5971
lhand -17.1576 329.127
lfingers 7.12502
lthumb 9.08329 -1.08825
rfemur -54.9014 -13.0321 15.6204
rtibia 68.3624
rfoot -30.2722 -7.44361
rtoes -9.60306
lfemur -49.626 17.3476 -9.21956
ltibia 55.3905
lfoot -17.7571 -7.8404
ltoes -14.6808
709
root 7.88516 14.6315 -0.629744 515.135 87.4832 498.506
lowerback 26.5871 -0.138574 1.71364
upperback 3.02632 0.665044 0.589262
thorax -11.4138 0.35793 -0.581948
lowerneck -18.0116 -0.246631 1.06857
upperneck 2.19386 -0.241346 -2.43399
head 3.49983 -0.185983 -0.940169
rclavicle 0 3.57812e-015
rhumerus -2.9678 2.33939 -78.8866
rradius 71.7236
rwrist -13.4507
rhand -18.7927 37.3558
rfingers 7.12502
rthumb 7.50523 7.509
lclavicle 0 3.57812e-015
lhumerus -12.6696 -7.8405 85.5317
lradius 69.7538
lwrist 29.6485
lhand -16.9165 328.738
lfingers 7.12502
lthumb 9.3159 -1.48808
rfemur -54.9704 -13.0356 15.4208
rtibia 68.3153
rfoot -30.3439 -7.24455
rtoes -8.81617
lfemur -49.9078 17.3052 -9.44644
ltibia 55.5849
lfoot -17.8308 -7.86798
ltoes -14.1781
